<!--?xml version="1.0" encoding="us-ascii" standalone="no"?--><svg xmlns="http://www.w3.org/2000/svg" xmlns:xlink="http://www.w3.org/1999/xlink" contentstyletype="text/css" height="398px" preserveAspectRatio="none" style="width:597px;height:398px;background:#FFFFFF;" version="1.1" viewBox="0 0 597 398" width="597px" zoomAndPan="magnify"><defs></defs><g><!--class Person--><g id="elem_Person"><rect codeline="1" fill="#F1F1F1" height="162.0781" id="Person" rx="2.5" ry="2.5" style="stroke:#181818;stroke-width:0.5;" width="158" x="203.84" y="229.78"></rect><ellipse cx="254.09" cy="245.78" fill="#ADD1B2" rx="11" ry="11" style="stroke:#181818;stroke-width:1.0;"></ellipse><path d="M257.0588,251.4206 Q256.4806,251.7175 255.84,251.8581 Q255.1994,252.0144 254.4963,252.0144 Q251.9963,252.0144 250.6681,250.3738 Q249.3556,248.7175 249.3556,245.5925 Q249.3556,242.4675 250.6681,240.8113 Q251.9963,239.155 254.4963,239.155 Q255.1994,239.155 255.84,239.3113 Q256.4963,239.4675 257.0588,239.7644 L257.0588,242.4831 Q256.4338,241.905 255.84,241.6394 Q255.2463,241.3581 254.6213,241.3581 Q253.2775,241.3581 252.59,242.4363 Q251.9025,243.4988 251.9025,245.5925 Q251.9025,247.6863 252.59,248.7644 Q253.2775,249.8269 254.6213,249.8269 Q255.2463,249.8269 255.84,249.5613 Q256.4338,249.28 257.0588,248.7019 L257.0588,251.4206 Z " fill="#000000"></path><text fill="#000000" font-family="sans-serif" font-size="14" lengthAdjust="spacing" textLength="49" x="274.59" y="250.6267">Person</text><line style="stroke:#181818;stroke-width:0.5;" x1="204.84" x2="360.84" y1="261.78" y2="261.78"></line><rect fill="none" height="6" style="stroke:#C82930;stroke-width:1.0;" width="6" x="211.84" y="272.4284"></rect><text fill="#000000" font-family="sans-serif" font-size="14" lengthAdjust="spacing" textLength="70" x="223.84" y="278.7751">id: integer</text><rect fill="none" height="6" style="stroke:#C82930;stroke-width:1.0;" width="6" x="211.84" y="288.7253"></rect><text fill="#000000" font-family="sans-serif" font-size="14" lengthAdjust="spacing" textLength="87" x="223.84" y="295.072">name: string</text><rect fill="none" height="6" style="stroke:#C82930;stroke-width:1.0;" width="6" x="211.84" y="305.0222"></rect><text fill="#000000" font-family="sans-serif" font-size="14" lengthAdjust="spacing" textLength="84" x="223.84" y="311.3689">age: integer</text><line style="stroke:#181818;stroke-width:0.5;" x1="204.84" x2="360.84" y1="318.6706" y2="318.6706"></line><ellipse cx="214.84" cy="332.3191" fill="#84BE84" rx="3" ry="3" style="stroke:#038048;stroke-width:1.0;"></ellipse><text fill="#000000" font-family="sans-serif" font-size="14" lengthAdjust="spacing" textLength="54" x="223.84" y="335.6657">create()</text><ellipse cx="214.84" cy="348.6159" fill="#84BE84" rx="3" ry="3" style="stroke:#038048;stroke-width:1.0;"></ellipse><text fill="#000000" font-family="sans-serif" font-size="14" lengthAdjust="spacing" textLength="105" x="223.84" y="351.9626">find(id: integer)</text><ellipse cx="214.84" cy="364.9128" fill="#84BE84" rx="3" ry="3" style="stroke:#038048;stroke-width:1.0;"></ellipse><text fill="#000000" font-family="sans-serif" font-size="14" lengthAdjust="spacing" textLength="129" x="223.84" y="368.2595">update(id: integer)</text><ellipse cx="214.84" cy="381.2097" fill="#84BE84" rx="3" ry="3" style="stroke:#038048;stroke-width:1.0;"></ellipse><text fill="#000000" font-family="sans-serif" font-size="14" lengthAdjust="spacing" textLength="132" x="223.84" y="384.5564">destroy(id: integer)</text></g><!--class PeopleController--><g id="elem_PeopleController"><rect codeline="11" fill="#F1F1F1" height="145.7813" id="PeopleController" rx="2.5" ry="2.5" style="stroke:#181818;stroke-width:0.5;" width="147" x="209.34" y="7"></rect><ellipse cx="224.34" cy="23" fill="#ADD1B2" rx="11" ry="11" style="stroke:#181818;stroke-width:1.0;"></ellipse><path d="M227.3088,28.6406 Q226.7306,28.9375 226.09,29.0781 Q225.4494,29.2344 224.7463,29.2344 Q222.2463,29.2344 220.9181,27.5938 Q219.6056,25.9375 219.6056,22.8125 Q219.6056,19.6875 220.9181,18.0313 Q222.2463,16.375 224.7463,16.375 Q225.4494,16.375 226.09,16.5313 Q226.7463,16.6875 227.3088,16.9844 L227.3088,19.7031 Q226.6838,19.125 226.09,18.8594 Q225.4963,18.5781 224.8713,18.5781 Q223.5275,18.5781 222.84,19.6563 Q222.1525,20.7188 222.1525,22.8125 Q222.1525,24.9063 222.84,25.9844 Q223.5275,27.0469 224.8713,27.0469 Q225.4963,27.0469 226.09,26.7813 Q226.6838,26.5 227.3088,25.9219 L227.3088,28.6406 Z " fill="#000000"></path><text fill="#000000" font-family="sans-serif" font-size="14" lengthAdjust="spacing" textLength="115" x="238.34" y="27.8467">PeopleController</text><line style="stroke:#181818;stroke-width:0.5;" x1="210.34" x2="355.34" y1="39" y2="39"></line><line style="stroke:#181818;stroke-width:0.5;" x1="210.34" x2="355.34" y1="47" y2="47"></line><rect fill="#F24D5C" height="6" style="stroke:#C82930;stroke-width:1.0;" width="6" x="217.34" y="57.6484"></rect><text fill="#000000" font-family="sans-serif" font-size="14" lengthAdjust="spacing" textLength="88" x="229.34" y="63.9951">set_person()</text><rect fill="#F24D5C" height="6" style="stroke:#C82930;stroke-width:1.0;" width="6" x="217.34" y="73.9453"></rect><text fill="#000000" font-family="sans-serif" font-size="14" lengthAdjust="spacing" textLength="117" x="229.34" y="80.292">person_params()</text><ellipse cx="220.34" cy="93.2422" fill="#84BE84" rx="3" ry="3" style="stroke:#038048;stroke-width:1.0;"></ellipse><text fill="#000000" font-family="sans-serif" font-size="14" lengthAdjust="spacing" textLength="54" x="229.34" y="96.5889">create()</text><ellipse cx="220.34" cy="109.5391" fill="#84BE84" rx="3" ry="3" style="stroke:#038048;stroke-width:1.0;"></ellipse><text fill="#000000" font-family="sans-serif" font-size="14" lengthAdjust="spacing" textLength="47" x="229.34" y="112.8857">show()</text><ellipse cx="220.34" cy="125.8359" fill="#84BE84" rx="3" ry="3" style="stroke:#038048;stroke-width:1.0;"></ellipse><text fill="#000000" font-family="sans-serif" font-size="14" lengthAdjust="spacing" textLength="59" x="229.34" y="129.1826">update()</text><ellipse cx="220.34" cy="142.1328" fill="#84BE84" rx="3" ry="3" style="stroke:#038048;stroke-width:1.0;"></ellipse><text fill="#000000" font-family="sans-serif" font-size="14" lengthAdjust="spacing" textLength="62" x="229.34" y="145.4795">destroy()</text></g><!--link PeopleController to Person--><g id="link_PeopleController_Person"><path codeline="20" d="M208.85,91.28 C154.16,103.26 83.28,128.78 47.84,182.78 C6,246.52 114.8,280.78 198.02,297.15 " fill="none" id="PeopleController-to-Person" style="stroke:#181818;stroke-width:1.0;"></path><polygon fill="#181818" points="202.47,298.2,194.3849,292.5758,197.5596,297.2579,192.8775,300.4325,202.47,298.2" style="stroke:#181818;stroke-width:1.0;"></polygon><text fill="#000000" font-family="sans-serif" font-size="13" lengthAdjust="spacing" textLength="51" x="48.84" y="195.8469">create()</text></g><!--link PeopleController to Person--><g id="link_PeopleController_Person"><path codeline="21" d="M208.84,115.37 C182.39,131.78 155.52,154.17 140.84,182.78 C121.32,220.82 157.7,252.83 198.52,275.2 " fill="none" id="PeopleController-to-Person-1" style="stroke:#181818;stroke-width:1.0;"></path><polygon fill="#181818" points="202.51,277.88,196.4656,270.1041,198.1026,275.5189,192.6878,277.1559,202.51,277.88" style="stroke:#181818;stroke-width:1.0;"></polygon><text fill="#000000" font-family="sans-serif" font-size="13" lengthAdjust="spacing" textLength="97" x="141.84" y="195.8469">find(id: integer)</text></g><!--link PeopleController to Person--><g id="link_PeopleController_Person"><path codeline="22" d="M280.44,153.25 C280.19,163.17 279.98,173.23 279.84,182.78 C279.64,196 279.7,210 279.91,223.68 " fill="none" id="PeopleController-to-Person-2" style="stroke:#181818;stroke-width:1.0;"></path><polygon fill="#181818" points="280.01,228.52,283.8551,219.4528,279.9243,223.5207,275.8563,219.5899,280.01,228.52" style="stroke:#181818;stroke-width:1.0;"></polygon><text fill="#000000" font-family="sans-serif" font-size="13" lengthAdjust="spacing" textLength="119" x="280.84" y="195.8469">update(id: integer)</text></g><!--link PeopleController to Person--><g id="link_PeopleController_Person"><path codeline="23" d="M356.58,115.14 C390.43,136.17 420.04,165.6 404.84,199.78 C396.08,219.48 381.85,237.14 366.15,252.25 " fill="none" id="PeopleController-to-Person-3" style="stroke:#181818;stroke-width:1.0;"></path><polygon fill="#181818" points="363.13,255.04,372.4189,251.7663,366.7643,251.606,366.9245,245.9515,363.13,255.04" style="stroke:#181818;stroke-width:1.0;"></polygon><text fill="#000000" font-family="sans-serif" font-size="13" lengthAdjust="spacing" textLength="122" x="409.84" y="195.8469">destroy(id: integer)</text></g><!--link PeopleController to Person--><g id="link_PeopleController_Person"><path codeline="24" d="M356.8,87.91 C417.52,98.01 499.94,122.66 540.84,182.78 C588.35,252.63 460.34,285.65 368.08,300 " fill="none" id="PeopleController-to-Person-4" style="stroke:#181818;stroke-width:1.0;"></path><polygon fill="#181818" points="363.33,300.88,372.8319,303.4712,368.2724,300.1229,371.6206,295.5634,363.33,300.88" style="stroke:#181818;stroke-width:1.0;"></polygon><text fill="#000000" font-family="sans-serif" font-size="13" lengthAdjust="spacing" textLength="42" x="547.84" y="195.8469">show()</text></g><!--SRC=[VL113i8W4BppYZtM63x0mOiVy0SDWHL9A10MOupnxrQAiQGDnvsTdPaTvIGHN31HyF1Y01oi5c1zHeEfp5vEA81oijuKG1fSCuwW4igCmw4CL-lriD9Oq7lKNye6rpWBXsUxU3EcQguG7Pw3dpdEOQe92VCOI-JYoM4PnYYJdAZcQ4BHBJo69abhNpmtRfoVVjM8lrwVjds_pzyhfd-nMrd_P7d_0m00]--></g></svg>